# xmcd CD database file
#
# Track frame offsets:
#	150
#	13113
#	31124
#	47216
#	75201
#	97687
#	114584
#	130539
#	151391
#	166077
#	179080
#
# Disc length: 2527 seconds
#
# Revision: 0
# Processed by: cddbd v1.5PL3 Copyright (c) Steve Scherf et al.
# Submitted via: CDex 1.50
#
DISCID=7409dd0b
DTITLE=Kevin Bennett and James Gillard - Two
DYEAR=2002
DGENRE=Country
TTITLE0=Higher Ground
TTITLE1=Dont Feel Right
TTITLE2=Why Anyone
TTITLE3=King Of Fools
TTITLE4=Up Above My Head
TTITLE5=KB's 114th Nightmare
TTITLE6=Star King
TTITLE7=Blue Horizon
TTITLE8=Andy
TTITLE9=Gone To Find
TTITLE10=Betty and Blondie (Real Gone)
EXTD=YEAR: 2002
EXTT0=
EXTT1=
EXTT2=
EXTT3=
EXTT4=
EXTT5=
EXTT6=
EXTT7=
EXTT8=
EXTT9=
EXTT10=
PLAYORDER=
